<svg width="27" height="40" viewBox="0 0 27 40" fill="none" xmlns="http://www.w3.org/2000/svg">
<path fill-rule="evenodd" clip-rule="evenodd" d="M2.3823 0C1.07638 0 0 1.08438 0 2.4V27.2C0 28.5156 1.07638 29.6 2.3823 29.6H21.4407C22.7466 29.6 23.823 28.5156 23.823 27.2V2.4C23.823 1.08438 22.7466 0 21.4407 0H2.3823ZM2.3823 1.6H21.4407C21.8811 1.6 22.2348 1.95625 22.2348 2.4V27.2C22.2348 27.6438 21.8811 28 21.4407 28H2.3823C1.94182 28 1.5882 27.6438 1.5882 27.2V2.4C1.5882 1.95625 1.94182 1.6 2.3823 1.6ZM3.1764 5.05C3.1764 4.03438 4.00462 3.2 5.01275 3.2H18.8102C19.8184 3.2 20.6466 4.03438 20.6466 5.05V10.15C20.6466 11.1656 19.8184 12 18.8102 12H5.01275C4.00462 12 3.1764 11.1656 3.1764 10.15V5.05ZM5.01275 4.8H18.8102C18.9126 4.8 19.0584 4.94688 19.0584 5.05V10.15C19.0584 10.2531 18.9126 10.4 18.8102 10.4H5.01275C4.91039 10.4 4.76459 10.2531 4.76459 10.15V5.05C4.76459 4.94688 4.91039 4.8 5.01275 4.8ZM26.0316 11.2C26.0626 11.1906 26.0967 11.1812 26.1308 11.175C26.3573 11.1531 26.5837 11.2312 26.7512 11.3906C26.9156 11.5469 27.0087 11.7688 26.9994 12V27.35C27.0025 27.6375 26.8536 27.9062 26.6054 28.0531C26.3573 28.1969 26.0533 28.1969 25.8051 28.0531C25.557 27.9062 25.4081 27.6375 25.4112 27.35V12C25.4019 11.6187 25.6624 11.2844 26.0316 11.2ZM3.89605 13.675C3.499 13.675 3.1764 14 3.1764 14.4V16.075C3.1764 16.475 3.499 16.8 3.89605 16.8H7.14689C7.54394 16.8 7.86654 16.475 7.86654 16.075V14.4C7.86654 14 7.54394 13.675 7.14689 13.675H3.89605ZM9.60363 14.4C9.60363 14 9.92624 13.675 10.3233 13.675H13.5741C13.9712 13.675 14.2938 14 14.2938 14.4V16.075C14.2938 16.475 13.9712 16.8 13.5741 16.8H10.3233C9.92624 16.8 9.60363 16.475 9.60363 16.075V14.4ZM16.6761 13.675C16.279 13.675 15.9564 14 15.9564 14.4V16.075C15.9564 16.475 16.279 16.8 16.6761 16.8H19.9269C20.324 16.8 20.6466 16.475 20.6466 16.075V14.4C20.6466 14 20.324 13.675 19.9269 13.675H16.6761ZM3.1764 19.2C3.1764 18.8 3.499 18.475 3.89605 18.475H7.14689C7.54394 18.475 7.86654 18.8 7.86654 19.2V20.875C7.86654 21.275 7.54394 21.6 7.14689 21.6H3.89605C3.499 21.6 3.1764 21.275 3.1764 20.875V19.2ZM10.3233 18.475C9.92624 18.475 9.60363 18.8 9.60363 19.2V20.875C9.60363 21.275 9.92624 21.6 10.3233 21.6H13.5741C13.9712 21.6 14.2938 21.275 14.2938 20.875V19.2C14.2938 18.8 13.9712 18.475 13.5741 18.475H10.3233ZM15.9564 19.2C15.9564 18.8 16.279 18.475 16.6761 18.475H19.9269C20.324 18.475 20.6466 18.8 20.6466 19.2V20.875C20.6466 21.275 20.324 21.6 19.9269 21.6H16.6761C16.279 21.6 15.9564 21.275 15.9564 20.875V19.2ZM3.89605 23.275C3.499 23.275 3.1764 23.6 3.1764 24V25.675C3.1764 26.075 3.499 26.4 3.89605 26.4H7.14689C7.54394 26.4 7.86654 26.075 7.86654 25.675V24C7.86654 23.6 7.54394 23.275 7.14689 23.275H3.89605ZM9.60363 24C9.60363 23.6 9.92624 23.275 10.3233 23.275H13.5741C13.9712 23.275 14.2938 23.6 14.2938 24V25.675C14.2938 26.075 13.9712 26.4 13.5741 26.4H10.3233C9.92624 26.4 9.60363 26.075 9.60363 25.675V24ZM16.6761 23.275C16.279 23.275 15.9564 23.6 15.9564 24V25.675C15.9564 26.075 16.279 26.4 16.6761 26.4H19.9269C20.324 26.4 20.6466 26.075 20.6466 25.675V24C20.6466 23.6 20.324 23.275 19.9269 23.275H16.6761ZM3.8216 36.95V30.4H5.4098V36.95C5.4098 37.7219 5.98366 38.4 6.82429 38.4H11.9115V30.4H15.882V38.4H16.9242C17.6904 38.4 18.3387 37.7969 18.3387 36.95V30.4H19.9269V36.95C19.9269 38.6625 18.5403 40 16.9242 40H6.82429C5.12442 40 3.8216 38.5781 3.8216 36.95Z" fill="#6299FF"/>
</svg>
