<svg width="40" height="30" viewBox="0 0 40 30" fill="none" xmlns="http://www.w3.org/2000/svg">
<path fill-rule="evenodd" clip-rule="evenodd" d="M24.6688 3.64231C25.6417 1.46566 27.6966 0 30.1969 0C33.6404 0 36.8 2.74764 36.8 6.32496C36.8 6.37312 36.796 6.43485 36.7918 6.49994L36.7918 6.50008C36.7881 6.55702 36.7843 6.61653 36.7828 6.67177C38.5699 7.10947 40 8.84122 40 10.9649C40 13.4051 38.044 15.4054 35.6453 15.4054H33.35H23.45H21.5016C18.911 15.4054 16.8 13.2465 16.8 10.6118C16.8 8.34583 18.1366 6.53672 20.1141 5.91955C20.3896 4.41529 21.64 3.24324 23.2 3.24324C23.7369 3.24324 24.2258 3.40282 24.6688 3.64231ZM35.2 6.32496C35.2 3.73687 32.7933 1.62162 30.1969 1.62162C28.1549 1.62162 26.6188 2.77197 25.9531 4.60832C25.8915 4.80209 25.8325 4.98139 25.7764 5.1519L25.7719 5.16575L25.3266 6.52291L24.4062 5.43813C24.1069 5.08456 23.6864 4.86486 23.2 4.86486C22.3354 4.86486 21.6456 5.53578 21.6022 6.3998C21.6013 6.36958 21.6 6.39871 21.6 6.48649C21.6 6.4574 21.6007 6.42849 21.6022 6.3998C21.6027 6.41727 21.6031 6.45457 21.6031 6.51182V7.19436L20.9391 7.31155C19.3447 7.59081 18.4 8.76232 18.4 10.6118C18.4 12.3766 19.7817 13.7838 21.5016 13.7838H23.45H33.35H35.6453C37.173 13.7838 38.4 12.5351 38.4 10.965C38.4 9.42207 37.1023 8.14949 36.0318 8.1091C36.0471 8.10865 36.0312 8.10811 35.9797 8.10811C35.997 8.10811 36.0143 8.10844 36.0318 8.1091C36.0209 8.10942 35.9941 8.10969 35.9531 8.10969H35.05L35.1594 7.2007C35.1746 7.07351 35.2 6.51439 35.2 6.32496ZM5.6 2.43243C3.8056 2.43243 2.4 3.85703 2.4 5.67568V23.5135C2.4 24.1114 2.56354 24.659 2.83125 25.1351H0.8C0.358191 25.1352 4.41743e-05 25.4982 0 25.9459C0 28.172 1.80364 30 4 30H36C38.1964 30 40 28.172 40 25.9459C40 25.4982 39.6418 25.1352 39.2 25.1351H37.1688C37.4365 24.659 37.6 24.1114 37.6 23.5135V16.6834C37.0936 16.8634 36.5576 16.9748 36 17.008V23.5135C36 24.4378 35.312 25.1351 34.4 25.1351H5.6C4.688 25.1351 4 24.4378 4 23.5135V5.67568C4 4.75135 4.688 4.05405 5.6 4.05405H19.05C19.4228 3.40216 19.9387 2.84757 20.5562 2.43243H5.6ZM5.6 26.7568H1.93125C2.28385 27.6561 2.98835 28.3784 4 28.3784H36C37.0117 28.3784 37.7161 27.6561 38.0688 26.7568H34.4H5.6Z" fill="#6299FF"/>
</svg>
