<svg width="40" height="35" viewBox="0 0 40 35" fill="none" xmlns="http://www.w3.org/2000/svg">
<path fill-rule="evenodd" clip-rule="evenodd" d="M0.00234361 2.23722C0.00234361 1.01607 1.02416 0 2.25221 0H37.7501C38.9782 0 40 1.01607 40 2.23722V6.28906V6.36364V34.2045C40 34.6427 39.6406 35 39.2 35H0.802297C0.361698 35 0.00234361 34.6427 0.00234361 34.2045V6.31392C-0.000781204 6.27974 -0.000781204 6.24867 0.00234361 6.21449V2.23722ZM37.7501 1.59091H2.25221C1.88036 1.59091 1.60225 1.86745 1.60225 2.23722V5.56818H38.4001V2.23722C38.4001 1.86745 38.122 1.59091 37.7501 1.59091ZM1.60225 7.15909H38.4001V33.4091H1.60225V7.15909ZM8.00187 12.7273V11.1364H32.0005V12.7273H8.00187ZM8.00187 17.5V19.0909H10.4017V17.5H8.00187ZM13.6015 19.0909V17.5H32.0005V19.0909H13.6015ZM8.00187 22.2727V23.8636H10.4017V22.2727H8.00187ZM13.6015 23.8636V22.2727H32.0005V23.8636H13.6015ZM8.00187 27.0455V28.6364H10.4017V27.0455H8.00187ZM13.6015 28.6364V27.0455H32.0005V28.6364H13.6015Z" fill="#6299FF"/>
</svg>
