<svg width="20" height="37" viewBox="0 0 20 37" fill="none" xmlns="http://www.w3.org/2000/svg">
<path fill-rule="evenodd" clip-rule="evenodd" d="M4.16667 0C3.05664 0 2.04102 0.535423 1.28581 1.2975C0.530599 2.05957 0 3.08443 0 4.20455V32.7955C0 34.2441 0.520833 35.3773 1.34115 36.0671C2.16146 36.7602 3.19336 37 4.16667 37H15.8333C16.9434 37 17.959 36.4646 18.7142 35.7025C19.4694 34.9404 20 33.9156 20 32.7955V4.20455C20 3.08443 19.4694 2.05957 18.7142 1.2975C17.959 0.535423 16.9434 0 15.8333 0H4.16667ZM4.16667 1.68182H15.8333C16.39 1.68182 17.041 1.9873 17.5358 2.48659C18.0306 2.98588 18.3333 3.64284 18.3333 4.20455V5.04545H1.66667V4.20455C1.66667 3.64284 1.9694 2.98588 2.46419 2.48659C2.95898 1.9873 3.61003 1.68182 4.16667 1.68182ZM18.3333 6.72727H1.66667V28.5909H18.3333V6.72727ZM5 10.9318C4.54102 10.9318 4.16667 11.3096 4.16667 11.7727V12.6136C4.16341 12.9158 4.31966 13.1983 4.58008 13.3527C4.8405 13.5038 5.1595 13.5038 5.41992 13.3527C5.68034 13.1983 5.83659 12.9158 5.83333 12.6136C6.13281 12.6169 6.41276 12.4593 6.56575 12.1965C6.7155 11.9337 6.7155 11.6118 6.56575 11.349C6.41276 11.0862 6.13281 10.9285 5.83333 10.9318H5ZM8.73698 11.2702L9.4043 10.9318H10.5957L10.8854 10.9844L11.3932 11.5362L11.263 12.2753L10.5957 12.6136H9.4043L9.11458 12.5611L8.60677 12.0092L8.73698 11.2702ZM14.1667 10.9318C13.8672 10.9285 13.5872 11.0862 13.4342 11.349C13.2845 11.6118 13.2845 11.9337 13.4342 12.1965C13.5872 12.4593 13.8672 12.6169 14.1667 12.6136C14.1634 12.9158 14.3197 13.1983 14.5801 13.3527C14.8405 13.5038 15.1595 13.5038 15.4199 13.3527C15.6803 13.1983 15.8366 12.9158 15.8333 12.6136V11.7727C15.8333 11.3096 15.459 10.9318 15 10.9318H14.1667ZM4.21875 16.6474L4.76562 16.1317L5.49805 16.2663L5.83333 16.9364V18.3817L5.78125 18.6708L5.23438 19.1865L4.50195 19.0518L4.16667 18.3817V16.9364L4.21875 16.6474ZM14.7656 16.1317L14.2188 16.6474L14.1667 16.9364V18.3817L14.502 19.0518L15.2344 19.1865L15.7812 18.6708L15.8333 18.3817V16.9364L15.498 16.2663L14.7656 16.1317ZM14.1667 21.8636C14.1667 21.4005 14.541 21.0227 15 21.0227C15.459 21.0227 15.8333 21.4005 15.8333 21.8636V22.7045H16.6667C17.1257 22.7045 17.5 23.0823 17.5 23.5455C17.5 24.0086 17.1257 24.3864 16.6667 24.3864H15.8333V25.2273C15.8333 25.6904 15.459 26.0682 15 26.0682C14.541 26.0682 14.1667 25.6904 14.1667 25.2273V24.3864H13.3333C12.8743 24.3864 12.5 24.0086 12.5 23.5455C12.5 23.0823 12.8743 22.7045 13.3333 22.7045H14.1667V21.8636ZM4.98698 21.8505C4.528 21.8604 4.16016 22.2414 4.16667 22.7045V23.5455C4.16667 24.0086 4.54102 24.3864 5 24.3864H5.83333C6.13281 24.3896 6.41276 24.232 6.56575 23.9692C6.7155 23.7064 6.7155 23.3845 6.56575 23.1217C6.41276 22.8589 6.13281 22.7013 5.83333 22.7045C5.83659 22.4779 5.7487 22.2578 5.58919 22.0969C5.42969 21.9359 5.21159 21.8472 4.98698 21.8505ZM8.73698 23.0429L9.4043 22.7045H10.5957L10.8854 22.7571L11.3932 23.3089L11.263 24.048L10.5957 24.3864H9.4043L9.11458 24.3338L8.60677 23.782L8.73698 23.0429ZM1.66667 30.2727H18.3333V32.7955C18.3333 33.3572 18.0306 34.0141 17.5358 34.5134C17.041 35.0127 16.39 35.3182 15.8333 35.3182H4.16667C3.47331 35.3182 2.83854 35.1375 2.40885 34.7795C1.97917 34.4181 1.66667 33.8696 1.66667 32.7955V30.2727ZM8.33333 32.7955C8.33333 31.8659 9.07878 31.1136 10 31.1136C10.9212 31.1136 11.6667 31.8659 11.6667 32.7955C11.6667 33.7251 10.9212 34.4773 10 34.4773C9.07878 34.4773 8.33333 33.7251 8.33333 32.7955Z" fill="#6299FF"/>
</svg>
