<svg width="16" height="16" viewBox="0 0 16 16" fill="none" xmlns="http://www.w3.org/2000/svg">
<g opacity="0.597396">
<path fill-rule="evenodd" clip-rule="evenodd" d="M1.6 1.59998H14.4C15.28 1.59998 16 2.31998 16 3.19998V12.8C16 13.68 15.28 14.4 14.4 14.4H1.6C0.72 14.4 0 13.68 0 12.8V3.19998C0 2.31998 0.72 1.59998 1.6 1.59998ZM8.848 8.27198L14.08 4.99998C14.28 4.87198 14.4 4.65598 14.4 4.42398C14.4 3.88798 13.816 3.56798 13.36 3.84798L8 7.19998L2.64 3.84798C2.184 3.56798 1.6 3.88798 1.6 4.42398C1.6 4.65598 1.72 4.87198 1.92 4.99998L7.152 8.27198C7.672 8.59998 8.328 8.59998 8.848 8.27198Z" fill="#1B2334"/>
</g>
</svg>
