<svg width="34" height="38" viewBox="0 0 34 38" fill="none" xmlns="http://www.w3.org/2000/svg">
<path fill-rule="evenodd" clip-rule="evenodd" d="M0 0V32.4583H3.16279V35.625H20.5581V34.0417H4.74419V4.75H26.8837V23.031H28.4651V3.16667H25.3023V0H0ZM1.5814 1.58333H23.7209V3.16667H3.16279V30.875H1.5814V1.58333ZM9.15634 9.7845C8.82029 8.49488 8.96614 7.15667 10.6899 7.125C11.1208 7.125 11.4459 7.33383 11.5748 7.56104C12.7743 7.56104 12.4624 9.23513 12.2805 9.78296C12.3477 9.85104 12.4303 10.0369 12.4303 10.287C12.4303 10.6457 12.0921 10.8607 12.0921 10.8607C12.0273 11.3183 11.7045 11.6957 11.5084 11.79C11.5084 11.8873 11.5051 11.9769 11.5019 12.065C11.4956 12.2369 11.4895 12.4032 11.5084 12.611C11.6457 12.9804 12.0962 13.1593 12.5925 13.3565C13.3302 13.6496 14.1692 13.983 14.2326 15.0417H7.20431C7.26765 13.9828 8.10668 13.6492 8.84405 13.3561C9.33998 13.1589 9.78992 12.98 9.92696 12.611C9.94578 12.4032 9.93972 12.2369 9.93344 12.065C9.93023 11.9769 9.92696 11.8873 9.92696 11.79C9.78464 11.7147 9.38789 11.3111 9.32622 10.8607C9.32622 10.8607 9.00386 10.7066 8.98646 10.2221C8.97698 9.96559 9.15634 9.7845 9.15634 9.7845ZM18.186 8.70833C17.9009 8.7043 17.6357 8.8543 17.4919 9.1009C17.3481 9.3475 17.3481 9.6525 17.4919 9.8991C17.6357 10.1457 17.9009 10.2957 18.186 10.2917H23.7209C24.0061 10.2957 24.2713 10.1457 24.4151 9.8991C24.5588 9.6525 24.5588 9.3475 24.4151 9.1009C24.2713 8.8543 24.0061 8.7043 23.7209 8.70833H18.186ZM17.4919 13.0592C17.6357 12.8126 17.9009 12.6626 18.186 12.6667H23.7209C24.0061 12.6626 24.2713 12.8126 24.4151 13.0592C24.5588 13.3058 24.5588 13.6108 24.4151 13.8574C24.2713 14.104 24.0061 14.254 23.7209 14.25H18.186C17.9009 14.254 17.6357 14.104 17.4919 13.8574C17.3481 13.6108 17.3481 13.3058 17.4919 13.0592ZM7.90698 19.7917C7.62182 19.7876 7.35659 19.9376 7.21283 20.1842C7.06908 20.4308 7.06908 20.7358 7.21283 20.9824C7.35659 21.229 7.62182 21.379 7.90698 21.375H18.186C18.4712 21.379 18.7364 21.229 18.8802 20.9824C19.0239 20.7358 19.0239 20.4308 18.8802 20.1842C18.7364 19.9376 18.4712 19.7876 18.186 19.7917H7.90698ZM21.4454 20.1842C21.5891 19.9376 21.8544 19.7876 22.1395 19.7917H23.7209C24.0061 19.7876 24.2713 19.9376 24.4151 20.1842C24.5588 20.4308 24.5588 20.7358 24.4151 20.9824C24.2713 21.229 24.0061 21.379 23.7209 21.375H22.1395C21.8544 21.379 21.5891 21.229 21.4454 20.9824C21.3016 20.7358 21.3016 20.4308 21.4454 20.1842ZM7.90698 24.5417C7.62182 24.5376 7.35659 24.6876 7.21283 24.9342C7.06908 25.1808 7.06908 25.4858 7.21283 25.7324C7.35659 25.979 7.62182 26.129 7.90698 26.125H15.814C16.0991 26.129 16.3643 25.979 16.5081 25.7324C16.6519 25.4858 16.6519 25.1808 16.5081 24.9342C16.3643 24.6876 16.0991 24.5376 15.814 24.5417H7.90698ZM22.1395 25.3333V24.5417H34V38H22.1395V25.3333ZM23.7209 26.125H32.4186V28.5H23.7209V26.125ZM7.21283 29.6842C7.35659 29.4376 7.62182 29.2876 7.90698 29.2917H18.186C18.4712 29.2876 18.7364 29.4376 18.8802 29.6842C19.0239 29.9308 19.0239 30.2358 18.8802 30.4824C18.7364 30.729 18.4712 30.879 18.186 30.875H7.90698C7.62182 30.879 7.35659 30.729 7.21283 30.4824C7.06908 30.2358 7.06908 29.9308 7.21283 29.6842ZM23.7209 30.0833H32.4186V32.4583H23.7209V30.0833ZM32.4186 34.0417H23.7209V36.4167H32.4186V34.0417Z" fill="#6299FF"/>
</svg>
