<svg width="40" height="36" viewBox="0 0 40 36" fill="none" xmlns="http://www.w3.org/2000/svg">
<path fill-rule="evenodd" clip-rule="evenodd" d="M19.9 0.00602558C19.8125 0.0185235 19.7282 0.0435193 19.6501 0.081013L0.455252 9.67941C0.055359 9.87312 -0.113346 10.3543 0.0803523 10.7542C0.274051 11.1542 0.755171 11.3229 1.15506 11.1292L20 1.70574L38.8449 11.1292C39.2448 11.3229 39.7259 11.1542 39.9196 10.7542C40.1133 10.3543 39.9446 9.87312 39.5448 9.67941L20.3499 0.081013C20.2093 0.0122749 20.0531 -0.0127209 19.9 0.00602558ZM11.2024 10.4293C8.20005 10.4293 5.91004 11.0386 4.3542 11.6541C2.79837 12.2696 1.92986 12.9289 1.92986 12.9289C1.74553 13.0726 1.63618 13.2944 1.62994 13.5288V30.4009H1.60494V33.6004C1.60494 34.041 1.96422 34.4003 2.40473 34.4003H16.451C16.4786 34.4403 16.5024 34.4771 16.5252 34.5124C16.6235 34.6646 16.7041 34.7893 17.0008 35.0252C17.6225 35.522 18.6222 36 20 36C21.3778 36 22.3775 35.522 22.9992 35.0252C23.2959 34.7893 23.3765 34.6646 23.4748 34.5124C23.4976 34.4771 23.5214 34.4403 23.549 34.4003H37.5953C38.0358 34.4003 38.3951 34.041 38.3951 33.6004V30.4009H38.3701V13.5288C38.3638 13.2944 38.2545 13.0726 38.0701 12.9289C38.0701 12.9289 37.2016 12.2696 35.6458 11.6541C34.09 11.0386 31.8 10.4293 28.7976 10.4293C25.7953 10.4293 23.5053 11.0386 21.9495 11.6541C20.981 12.0384 20.3936 12.3821 20 12.6289C19.6064 12.3821 19.019 12.0384 18.0505 11.6541C16.4947 11.0386 14.2047 10.4293 11.2024 10.4293ZM17.4757 13.1038C16.0823 12.5508 13.9954 11.979 11.2024 11.979C8.40936 11.979 6.32243 12.5508 4.92905 13.1038C3.78819 13.556 3.37631 13.859 3.20102 13.9879L3.17952 14.0037V29.901C3.29889 29.8288 3.38236 29.7706 3.45963 29.7167C3.64325 29.5887 3.7919 29.485 4.30422 29.2761C5.8538 28.6419 8.16256 28.0263 11.2024 28.0263C14.2422 28.0263 16.5509 28.6419 18.1005 29.2761C18.6128 29.485 18.7615 29.5887 18.9451 29.7167C19.0224 29.7706 19.1058 29.8288 19.2252 29.901V14.0037L19.2037 13.9879L19.2037 13.9879L19.2037 13.9879C19.0284 13.8589 18.6165 13.556 17.4757 13.1038ZM28.7976 11.979C31.5906 11.979 33.6776 12.5508 35.0709 13.1038C36.2118 13.556 36.6237 13.859 36.799 13.9879L36.8205 14.0037V29.901C36.7011 29.8289 36.6177 29.7707 36.5404 29.7168L36.5404 29.7167C36.3568 29.5887 36.2081 29.485 35.6958 29.2761C34.1462 28.6419 31.8374 28.0263 28.7976 28.0263C25.7578 28.0263 23.4491 28.6419 21.8995 29.2761C21.3872 29.485 21.2385 29.5887 21.0549 29.7167C20.9776 29.7706 20.8942 29.8288 20.7748 29.901V14.0037L20.7963 13.9879L20.7963 13.9879C20.9716 13.859 21.3835 13.556 22.5243 13.1038C23.9177 12.5508 26.0046 11.979 28.7976 11.979ZM17.5007 30.7259C16.1198 30.1604 14.0297 29.5761 11.2024 29.5761C8.375 29.5761 6.28494 30.1604 4.90406 30.7259C3.95431 31.1133 3.47944 31.4133 3.20451 31.6007V32.8005H16.8009C17.1102 32.7974 17.3913 32.9724 17.5257 33.2505C17.5257 33.2505 17.6225 33.4723 18.0005 33.7754C18.3786 34.0784 18.9784 34.4003 20 34.4003C21.0216 34.4003 21.6214 34.0784 21.9995 33.7754C22.3775 33.4723 22.4743 33.2505 22.4743 33.2505C22.6087 32.9724 22.8898 32.7974 23.1991 32.8005H36.7955V31.6007C36.5206 31.4133 36.0457 31.1133 35.0959 30.7259C33.7151 30.1604 31.625 29.5761 28.7976 29.5761C25.9703 29.5761 23.8802 30.1604 22.4993 30.7259C21.1185 31.2914 20.4999 31.8007 20.4999 31.8007C20.4686 31.8288 20.4343 31.8538 20.3999 31.8757H20.3749L20.3499 31.9007H20.2999C20.2218 31.9382 20.1375 31.9663 20.05 31.9757H20H19.95H19.925H19.875L19.85 31.9507H19.8001H19.7751C19.7594 31.9444 19.7407 31.9351 19.7251 31.9257H19.7001C19.6845 31.9194 19.6657 31.9101 19.6501 31.9007L19.6251 31.8757L19.6001 31.8507H19.5751C19.5564 31.8351 19.5407 31.8194 19.5251 31.8007H19.5001C19.5001 31.8007 18.8816 31.2914 17.5007 30.7259Z" fill="#6299FF"/>
</svg>
