<svg width="36" height="37" viewBox="0 0 36 37" fill="none" xmlns="http://www.w3.org/2000/svg">
<path fill-rule="evenodd" clip-rule="evenodd" d="M10.3997 2.53715C12.0189 0.967267 14.4466 1.8707e-09 17.5998 1.8707e-09C17.9028 -2.07188e-05 18.1799 0.172093 18.3154 0.444591L18.967 1.7548C20.6496 1.94364 21.9924 2.76676 22.7749 3.96518C23.6527 5.3098 23.9938 6.95134 23.9999 8.44251C24.0048 9.61159 23.7499 10.6045 23.3327 11.4258C23.3756 11.4775 23.4342 11.5119 23.4927 11.5462C23.5656 11.589 23.6381 11.6315 23.6796 11.707C23.9218 12.1484 24.049 12.7093 23.9968 13.3393V13.344C23.907 14.3371 23.6438 15.0537 23.2389 15.5512C23.0862 15.7389 22.8993 15.7984 22.7085 15.8591C22.6274 15.8849 22.5456 15.911 22.4655 15.9471C22.2808 16.8564 21.9677 17.7651 21.5874 18.5H35.2C35.6418 18.5 36 18.8601 36 19.3043V36.1957C36 36.6399 35.6418 37 35.2 37H17.5998C17.158 37 16.7998 36.6399 16.7998 36.1957V33.7826H0.79964C0.579941 33.7825 0.369959 33.6915 0.218952 33.5311C0.0679456 33.3706 -0.0107977 33.1548 0.00119403 32.9343C0.110595 30.9104 0.880991 29.3765 1.96996 28.2731C3.05894 27.1698 4.42565 26.4761 5.75907 25.9119C6.26335 25.6986 6.76495 25.5028 7.24772 25.3144L7.24776 25.3144C8.0415 25.0047 8.78432 24.7148 9.40442 24.3991C10.3706 23.9072 10.9582 23.3939 11.1997 22.7323V19.5117C10.8496 19.1557 10.5115 18.8073 10.2232 18.2439C9.91014 17.6322 9.71629 16.8709 9.57004 16.1089C9.28679 15.9707 9.02569 15.772 8.80285 15.4774C8.42491 14.9778 8.14132 14.2661 8.00753 13.2796C8.00562 13.266 8.00405 13.2524 8.00284 13.2387C7.92486 12.2979 8.28714 11.7097 8.66378 11.2907C8.3113 10.3701 7.99971 9.42657 7.99971 8.44565C7.99971 6.24614 8.78055 4.10704 10.3997 2.53715ZM17.6842 2.7728L17.142 1.68096C14.5895 1.77891 12.714 2.52984 11.5107 3.69654C10.2262 4.94188 9.59973 6.62343 9.59973 8.44565C9.59973 9.31613 9.84277 10.2487 10.2513 11.176C10.4095 11.5341 10.2881 11.9548 9.9638 12.172C9.93744 12.1897 9.5578 12.4719 9.59973 13.0879C9.70778 13.846 9.91703 14.2929 10.0763 14.5034C10.1645 14.62 10.2407 14.6618 10.266 14.6757C10.2719 14.679 10.2751 14.6807 10.2749 14.6815C10.2746 14.6823 10.2703 14.682 10.2612 14.6814H10.2612H10.2612C10.2503 14.6807 10.2326 14.6796 10.2069 14.6794C10.6161 14.6828 10.9573 14.9964 10.9966 15.4067C11.0636 16.1133 11.33 16.89 11.6466 17.5087C11.9632 18.1274 12.4063 18.6102 12.4435 18.6351C12.6661 18.7843 12.7997 19.0354 12.7998 19.3043V22.9239C12.7999 23.0087 12.7867 23.093 12.7607 23.1737C12.3459 24.451 11.2881 25.2442 10.1279 25.835C9.38465 26.2133 8.57114 26.5289 7.75206 26.8466L7.75204 26.8466L7.75201 26.8466C7.2924 27.0249 6.83105 27.2038 6.37938 27.395C5.12277 27.9267 3.95446 28.5461 3.10591 29.4058C2.4276 30.0931 2.00653 31.0132 1.78715 32.1739H16.7998V19.3043C16.7998 18.8601 17.158 18.5 17.5998 18.5H19.7139L20.0545 17.9847C20.4544 17.3025 20.8802 16.2296 21.0092 15.3643C21.068 14.9708 21.4041 14.6796 21.7999 14.6793C21.7954 14.6793 21.8663 14.6977 22.0014 14.5317C22.1364 14.3658 22.3326 13.9758 22.403 13.201C22.4298 12.868 22.357 12.6258 22.2795 12.4847C22.242 12.4163 22.1993 12.3809 22.181 12.3658C22.175 12.3608 22.1716 12.358 22.1721 12.357C22.1727 12.3558 22.179 12.3573 22.1932 12.3606C22.2046 12.3632 22.2211 12.367 22.2436 12.3716C21.9711 12.317 21.7462 12.1241 21.6497 11.8621C21.5531 11.6 21.5988 11.3064 21.7702 11.0865C22.041 10.7386 22.4049 9.64583 22.3999 8.44879C22.3948 7.21081 22.0833 5.83748 21.4374 4.84808C20.7914 3.85868 19.8958 3.21739 18.3998 3.21739C18.0968 3.21741 17.8197 3.0453 17.6842 2.7728ZM18.3998 20.1087H34.4V35.3913H18.3998V33.1134C18.4141 33.0265 18.4141 32.9379 18.3998 32.851V20.1087ZM22.4976 22.1162C22.643 21.8657 22.9114 21.7133 23.1999 21.7174H29.5999C29.8884 21.7133 30.1568 21.8657 30.3022 22.1162C30.4477 22.3668 30.4477 22.6767 30.3022 22.9272C30.1568 23.1778 29.8884 23.3302 29.5999 23.3261H23.1999C22.9114 23.3302 22.643 23.1778 22.4976 22.9272C22.3521 22.6767 22.3521 22.3668 22.4976 22.1162Z" fill="#6299FF"/>
</svg>
