<svg width="37" height="37" viewBox="0 0 37 37" fill="none" xmlns="http://www.w3.org/2000/svg">
<path fill-rule="evenodd" clip-rule="evenodd" d="M8.04532 0C5.83351 0 4.02384 1.80978 4.02384 4.02174C4.02384 6.2337 5.83351 8.04348 8.04532 8.04348C10.2571 8.04348 12.0668 6.2337 12.0668 4.02174C12.0668 1.80978 10.2571 0 8.04532 0ZM21.7184 0V1.6087H13.6754V3.21739H35.3914V24.1304H14.4797V25.7391H21.3162L16.8926 34.587H18.5012L22.5227 26.5435L26.5441 34.587H28.1527L23.7291 25.7391H36.1957C36.6387 25.7391 37 25.3778 37 24.9348V2.41304C37 1.97002 36.6387 1.6087 36.1957 1.6087H23.327V0H21.7184ZM10.4582 4.02174C10.4582 2.68011 9.38686 1.6087 8.04532 1.6087C6.70378 1.6087 5.63243 2.68011 5.63243 4.02174C5.63243 5.36337 6.70378 6.43478 8.04532 6.43478C9.38686 6.43478 10.4582 5.36337 10.4582 4.02174ZM4.42599 8.84783C1.99111 8.84783 0.00235619 10.8367 0.00235619 13.2717V23.1753C-0.000785396 23.2098 -0.000785396 23.2413 0.00235619 23.2758V23.3261C-0.000785396 23.4015 0.00864016 23.48 0.0274905 23.5523C0.146879 24.7683 1.1711 25.7391 2.41525 25.7391C2.69801 25.7391 2.96506 25.6794 3.21954 25.5883V34.1848C3.21954 35.7306 4.48882 37 6.03458 37C6.82003 37 7.53321 36.6701 8.04532 36.1454C8.55743 36.6701 9.27062 37 10.0561 37C11.6018 37 12.8711 35.7306 12.8711 34.1848V13.6739H21.7184C23.0411 13.6739 24.1313 12.5836 24.1313 11.2609C24.1313 9.9538 23.0693 8.8761 21.7686 8.84783H21.7184H10.4582C10.1472 8.84468 9.86442 9.02064 9.72932 9.30027L8.04532 12.6685L6.36133 9.30027C6.22623 9.02064 5.94347 8.84468 5.63243 8.84783H4.42599ZM5.12975 10.4565H4.42599C2.86138 10.4565 1.61095 11.707 1.61095 13.2717V23.1753C1.61723 23.2255 1.61723 23.2758 1.61095 23.3261V23.3764C1.63608 23.8068 1.97854 24.1304 2.41525 24.1304C2.8708 24.1304 3.21954 23.7817 3.21954 23.3261V23.2758V23.2004V15.2826C3.21012 14.8993 3.47403 14.5631 3.8479 14.4783C4.08982 14.4248 4.3443 14.4845 4.53281 14.6416C4.72446 14.7987 4.83442 15.0344 4.82814 15.2826V34.1848C4.82814 34.8603 5.3591 35.3913 6.03458 35.3913C6.66922 35.3913 7.18133 34.9263 7.24103 34.3105V34.1345C7.23788 34.0999 7.23788 34.0685 7.24103 34.034V25.7391C7.2316 25.3558 7.49551 25.0196 7.86938 24.9348C7.9008 24.9254 7.93536 24.9159 7.96992 24.9096C8.19927 24.8877 8.42862 24.9662 8.59828 25.1264C8.76479 25.2835 8.85904 25.5066 8.84962 25.7391V34.034V34.1094V34.3105C8.90931 34.9263 9.42142 35.3913 10.0561 35.3913C10.7315 35.3913 11.2625 34.8603 11.2625 34.1848V12.8696C11.2625 12.4265 11.6238 12.0652 12.0668 12.0652H21.7184C22.1739 12.0652 22.5227 11.7165 22.5227 11.2609C22.5227 10.8336 22.2116 10.4942 21.7938 10.4565H21.7184H10.9609L8.77422 14.8302C8.64226 15.1129 8.35636 15.2952 8.04532 15.2952C7.73429 15.2952 7.44838 15.1129 7.31643 14.8302L5.12975 10.4565Z" fill="#6299FF"/>
</svg>
