<svg width="16" height="16" viewBox="0 0 16 16" fill="none" xmlns="http://www.w3.org/2000/svg">
<g opacity="0.597396">
<path d="M16 3.11532C15.4113 3.37258 14.7787 3.54583 14.1147 3.62393C14.7927 3.22426 15.3133 2.59095 15.558 1.83623C14.924 2.20637 14.2213 2.47545 13.4733 2.62048C12.8753 1.99243 12.0213 1.59998 11.0773 1.59998C8.958 1.59998 7.40067 3.54649 7.87933 5.56716C5.152 5.43263 2.73333 4.14633 1.114 2.19128C0.254 3.64362 0.668 5.54354 2.12933 6.50564C1.592 6.48857 1.08533 6.34354 0.643333 6.10137C0.607333 7.59834 1.69733 8.99883 3.276 9.31056C2.814 9.43394 2.308 9.46281 1.79333 9.36568C2.21067 10.6494 3.42267 11.5832 4.86 11.6095C3.48 12.6746 1.74133 13.1504 0 12.9483C1.45267 13.8651 3.17867 14.4 5.032 14.4C11.1267 14.4 14.57 9.33287 14.362 4.78816C15.0033 4.33205 15.56 3.76306 16 3.11532Z" fill="#1B2334"/>
</g>
</svg>
