<svg width="38" height="33" viewBox="0 0 38 33" fill="none" xmlns="http://www.w3.org/2000/svg">
<path fill-rule="evenodd" clip-rule="evenodd" d="M3.61461 0C3.5771 2.7978e-05 3.53964 0.0026535 3.50249 0.00785755C2.19632 0.0276701 0.989924 0.380158 2.01753e-07 0.982196V2.98588C0.857022 2.14908 2.15929 1.60923 3.61461 1.60923C5.54068 1.60923 7.1442 2.57025 7.85771 3.8345C7.99311 4.07497 8.24278 4.22975 8.51937 4.24466C9.40041 4.29181 10.1257 4.56552 10.5991 4.95184C11.0725 5.33816 11.3191 5.80393 11.3191 6.43692C11.3191 6.5778 11.3302 6.6994 11.3405 6.8123L11.3405 6.81234L11.3405 6.81237L11.3405 6.8124C11.3449 6.86036 11.3491 6.90675 11.3523 6.95238C11.3572 7.022 11.3545 7.09376 11.3527 7.14076V7.14077C11.3506 7.19709 11.3499 7.21783 11.3649 7.15668C11.2908 7.45663 11.3957 7.77235 11.635 7.96915C11.9675 8.2415 12.353 8.83411 12.6077 9.4998C12.8625 10.1655 12.9976 10.9058 12.9867 11.3982C12.9847 11.4838 12.9964 11.5692 13.0214 11.6512L6.74601 17.0949C6.51668 17.2803 6.4072 17.5754 6.46047 17.8646C6.51374 18.1538 6.72128 18.3911 7.00178 18.4835C7.28228 18.5759 7.59107 18.5086 7.80718 18.3081L8.89362 17.3652V23.9703C8.52771 23.893 8.13761 23.7428 7.72507 23.469C7.32653 23.2047 6.92749 23.0539 6.56283 22.9913C6.3805 22.96 6.20717 22.9506 6.04646 22.9598C5.88575 22.9691 5.73765 22.9969 5.60746 23.04C5.32203 23.1344 5.15391 23.2136 5.0429 23.2659C4.95138 23.309 4.89868 23.3338 4.85106 23.3338H2.42553C2.24411 23.3317 2.06724 23.3904 1.92337 23.5004C0.948606 24.0782 0.431564 24.1716 0.266872 24.1872C0.177936 24.155 0.0889368 24.1383 2.01753e-07 24.1463V25.7791C0.420426 25.8354 0.962507 25.7319 1.60123 25.4664C1.47187 30.2539 0.647504 31.2998 0.510057 31.4366C0.202823 31.5573 2.01753e-07 31.8547 2.01753e-07 32.1846V32.1873C-4.11935e-06 32.2267 -8.28232e-06 32.2663 0.00789617 32.3056C0.0644919 32.6999 0.412341 32.9892 0.808511 32.9892H0.811204C0.850745 32.9892 0.890575 32.9892 0.930104 32.9814C1.75261 32.8578 3.1048 31.5776 3.21351 24.9431H4.06308C4.11573 28.4472 4.47145 30.3876 4.90949 31.4774C5.14613 32.0662 5.41011 32.4382 5.69747 32.6765C5.84115 32.7957 5.99091 32.878 6.127 32.9264C6.26308 32.9747 6.46809 32.9892 6.46809 32.9892C6.8679 32.9922 7.20985 32.7039 7.27264 32.3109C7.33542 31.9179 7.10018 31.5383 6.71917 31.4177C6.69413 31.3953 6.57015 31.2796 6.40966 30.8803C6.09494 30.0973 5.73556 28.1913 5.68958 24.6948C5.77009 24.654 5.92946 24.6149 6.03184 24.5898L6.03186 24.5897L6.03189 24.5897L6.03193 24.5897L6.03222 24.5897C6.07193 24.5799 6.10301 24.5723 6.11752 24.5675C6.13398 24.562 6.14878 24.5563 6.16276 24.551L6.16278 24.551C6.27916 24.5062 6.33864 24.4833 6.82812 24.8079C7.50828 25.2594 8.21301 25.5075 8.89362 25.5984V32.1846C8.89366 32.629 9.25562 32.9892 9.70213 32.9892H16.8429C16.9302 33.0036 17.0193 33.0036 17.1066 32.9892H23.311C23.3983 33.0036 23.4874 33.0036 23.5747 32.9892H29.5106H30.7234H33.9574C35.734 32.9892 37.1915 31.5388 37.1915 29.7708C37.1915 29.2265 37.018 28.7364 36.7762 28.2857C37.4663 27.773 38 27.0689 38 26.15C38 24.6042 36.7235 23.3338 35.1702 23.3338C35.1278 23.3338 35.0923 23.3412 35.0567 23.3486C35.0303 23.3541 35.0039 23.3596 34.9744 23.3621C34.4088 22.435 33.5066 21.7246 32.3404 21.7246C32.0542 21.7246 31.7849 21.769 31.5319 21.8472V17.3652L32.6184 18.3081C32.8345 18.5086 33.1433 18.5759 33.4238 18.4835C33.7043 18.3911 33.9118 18.1538 33.9651 17.8646C34.0183 17.5754 33.9089 17.2803 33.6795 17.0949L29.1064 13.1284V7.24154H24.2553V8.91992L20.7434 5.87275C20.6 5.74836 20.4171 5.67825 20.227 5.67474C20.027 5.67142 19.8329 5.74197 19.6822 5.87275L14.5106 10.3579C14.4291 9.88434 14.2998 9.4005 14.1189 8.92777C13.8606 8.25285 13.4276 7.68002 12.9504 7.16139C12.9492 7.11528 12.9537 7.06129 12.958 7.00785C12.963 6.94742 12.9679 6.88768 12.9646 6.8408C12.9592 6.76358 12.9536 6.68733 12.9488 6.6221L12.9487 6.62149L12.9487 6.62121L12.9487 6.62103C12.9415 6.52401 12.9362 6.45156 12.9362 6.43692C12.9362 5.33597 12.4233 4.35823 11.6255 3.7072C10.9253 3.13576 10.0054 2.8319 9.00889 2.71401C7.90384 1.07595 5.91214 0 3.61461 0ZM20.2128 7.54641L24.4511 11.2222C24.5022 11.2818 24.5618 11.3337 24.628 11.3762L27.742 14.0776C27.7612 14.0959 27.7812 14.1132 27.802 14.1295L29.9228 15.9697C29.917 16.0103 29.9144 16.0513 29.9149 16.0923V23.0683C29.8276 23.1892 29.7446 23.3137 29.6701 23.4439C29.6048 23.4315 29.5415 23.4147 29.4783 23.3978L29.4782 23.3978C29.3581 23.3658 29.2384 23.3338 29.1064 23.3338C27.3298 23.3338 25.8723 24.7843 25.8723 26.5523C25.8723 27.5078 26.3793 28.2749 27.0488 28.864C26.834 29.2612 26.6809 29.694 26.6809 30.1731C26.6809 30.606 26.79 31.0122 26.9683 31.38H24.2553V20.92H16.1702V31.38H10.5106V16.0923C10.5105 16.0518 10.5074 16.0113 10.5012 15.9713L20.2128 7.54641ZM27.4894 8.85077H25.8723V10.3217L27.4894 11.7251V8.85077ZM22.6383 22.5292V31.38H17.7872V22.5292H22.6383ZM33.8706 24.459C33.6629 23.8065 33.0678 23.3338 32.3404 23.3338C31.9671 23.3338 31.6291 23.458 31.3598 23.667C31.3056 23.7357 31.2405 23.7951 31.1671 23.843L31.164 23.8462C30.9894 24.0354 30.8597 24.2675 30.7897 24.5251C30.7296 24.7471 30.5769 24.9329 30.3702 25.0356C30.1635 25.1383 29.9225 25.1481 29.708 25.0625C29.515 24.9853 29.3152 24.9431 29.1064 24.9431C28.2035 24.9431 27.4894 25.6538 27.4894 26.5523C27.4894 27.2061 27.8766 27.7534 28.4337 28.0091C28.6753 28.1198 28.8467 28.3418 28.8921 28.6026C28.9376 28.8635 28.8512 29.1298 28.6611 29.315C28.4356 29.5351 28.2979 29.832 28.2979 30.1731C28.2979 30.8496 28.8308 31.38 29.5106 31.38H30.7234H33.9574C34.8603 31.38 35.5745 30.6693 35.5745 29.7708C35.5745 29.3298 35.3992 28.9402 35.1118 28.6471C34.9114 28.4426 34.8351 28.1477 34.9111 27.8723C34.9871 27.5969 35.2041 27.3822 35.4813 27.3082C36.001 27.1694 36.383 26.7147 36.383 26.15C36.383 25.4735 35.85 24.9431 35.1702 24.9431C35.0804 24.9431 34.9796 24.9591 34.8528 24.9934C34.4344 25.106 34.0012 24.8703 33.8706 24.459Z" fill="#6299FF"/>
</svg>
